<svg width="536" height="100" viewBox="0 0 536 100" fill="none" xmlns="http://www.w3.org/2000/svg">
<path d="M0 77.2334L3.00307 63.0163H42.1399C44.7555 63.0163 45.8211 62.1517 46.4023 59.462L48.5335 49.3756C48.6304 48.9913 48.6304 48.511 48.6304 48.2228C48.6304 46.7819 47.8554 46.3016 45.8211 46.3016H16.856C11.0436 46.3016 8.42798 43.6119 8.42798 39.097C8.42798 38.1364 8.52485 37.1758 8.7186 36.023L12.6904 17.195C14.531 8.54943 18.4059 4.51483 27.9964 4.51483H73.7206L70.8144 18.4437H31.9682C29.6432 18.4437 28.8682 19.3083 28.287 21.902L26.2527 31.5081C26.1558 32.0845 26.0589 32.4687 26.0589 32.949C26.0589 34.1018 26.737 34.5821 28.4807 34.5821H57.9302C63.9364 34.5821 66.4551 37.2718 66.4551 41.8828C66.4551 42.7473 66.3582 43.804 66.1645 44.8607L61.902 64.7454C60.0614 73.3909 56.0896 77.4255 46.6929 77.4255H0V77.2334Z" fill="#257CFF"/>
<path d="M114.31 77.2334L122.447 38.8088C122.544 38.2325 122.641 37.8482 122.641 37.56C122.641 36.3112 121.769 35.8309 119.929 35.8309H97.2604C95.1291 35.8309 94.2573 36.5034 93.676 38.8088L85.5387 77.2334H70.3296L86.7981 0H102.007L95.8073 28.7224C98.6166 24.5917 101.91 22.7666 106.56 22.7666H130.682C136.494 22.7666 139.11 24.5917 139.11 29.2988C139.11 30.4515 139.013 31.8924 138.722 33.4294L129.422 77.2334H114.31Z" fill="#257CFF"/>
<path d="M230.074 77.2334L232.786 64.3612H250.998C253.13 64.3612 253.905 63.6888 254.486 61.3833L259.233 39.2891C259.33 38.7128 259.33 38.3285 259.33 37.8482C259.33 36.5994 258.748 36.1191 257.005 36.1191H233.464L219.708 100H204.499L221.065 22.7665H267.467C273.764 22.7665 276.186 24.8799 276.186 29.2987C276.186 30.4515 276.089 31.8924 275.798 33.4294L268.726 66.5706C267.079 73.9673 262.914 77.2334 255.939 77.2334H230.074Z" fill="#257CFF"/>
<path d="M290.523 77.2336L283.354 4.41895H300.404L304.57 57.541L332.469 4.41895H348.841L309.123 77.2336H290.523Z" fill="white"/>
<path d="M341.187 77.2334L352.812 22.7666H368.021L356.396 77.2334H341.187ZM354.265 16.3305L357.752 0H373.058L369.571 16.3305H354.265Z" fill="white"/>
<path d="M378.782 77.2334C372.582 77.2334 370.063 75.2161 370.063 70.7973C370.063 69.6446 370.257 68.2036 370.644 66.5706L377.716 33.4294C379.266 26.1287 382.463 22.7665 390.406 22.7665H427.509C433.031 22.7665 435.259 24.7838 435.259 29.0105C435.259 30.1633 435.162 31.5081 434.871 32.9491L430.318 54.3708H393.7L395.541 45.341H417.725L419.372 38.0403C419.468 37.4639 419.468 37.0797 419.468 36.5994C419.468 35.5427 418.887 35.0624 417.143 35.0624H395.25C392.731 35.0624 392.247 35.7348 391.666 38.0403L386.531 61.4793C386.435 62.1518 386.338 62.6321 386.338 63.1124C386.338 64.3612 387.016 64.7454 388.856 64.7454H425.862L423.246 77.1374H378.782V77.2334Z" fill="white"/>
<path d="M488.048 77.2334L484.657 39.4812L463.83 77.2334H444.939L441.161 22.7665H457.92L459.374 61.7675L480.008 22.7665H497.929L500.835 61.5754L519.919 22.7665H536L507.326 77.2334H488.048Z" fill="white"/>
<path d="M191.033 56.8683L184.348 50.2401C186.576 52.5456 188.805 54.755 191.033 56.8683Z" fill="#257CFF"/>
<path d="M199.171 22.8624H161.778C153.931 22.8624 150.734 26.2246 149.184 33.5253L142.113 66.6665C141.822 68.2995 141.531 69.6444 141.531 70.8932C141.531 72.0459 141.725 73.1026 142.113 73.8711C148.216 68.5877 153.641 62.4398 159.841 57.2524C162.456 59.1737 164.587 61.5752 166.331 64.2649C161.584 68.5877 156.644 72.8144 152.091 77.4254H187.546C195.49 77.4254 198.59 74.0632 200.237 66.7625L207.308 33.6213C207.599 31.9883 207.89 30.6434 207.89 29.3946C207.793 24.8797 205.468 22.8624 199.171 22.8624ZM176.018 71.8538C175.34 72.4302 174.759 73.1026 174.081 73.679C172.337 71.5656 169.818 69.8365 169.528 66.9547C168.656 60.8067 163.715 55.3312 157.612 54.1785C154.609 53.7942 152.769 51.2966 150.734 49.2793L166.912 33.2371L167.106 33.045L167.203 33.141L184.446 50.24C186.674 52.4494 188.806 54.6588 191.131 56.8682L176.018 71.8538ZM192.39 55.6194L168.365 31.7961L170.69 29.4907L194.715 53.3139L192.39 55.6194ZM195.974 52.0651L171.95 28.2419L174.275 25.9364L198.299 49.7596L195.974 52.0651Z" fill="#257CFF"/>
<path d="M171.949 56.1959C173.929 56.1959 175.533 54.6045 175.533 52.6416C175.533 50.6786 173.929 49.0873 171.949 49.0873C169.97 49.0873 168.365 50.6786 168.365 52.6416C168.365 54.6045 169.97 56.1959 171.949 56.1959Z" fill="#257CFF"/>
</svg>
